<?xml version="1.0" encoding="utf-8"?>
<!-- Generator: Adobe Illustrator 23.0.3, SVG Export Plug-In . SVG Version: 6.00 Build 0)  -->
<svg version="1.1" id="Слой_1" xmlns="http://www.w3.org/2000/svg" xmlns:xlink="http://www.w3.org/1999/xlink" x="0px" y="0px"
	 viewBox="0 0 156 40" style="enable-background:new 0 0 156 40;" xml:space="preserve">
<style type="text/css">
	.st0{fill:#C44536;}
</style>
<g>
	<path d="M19.5,9.8V27c0,4.5-2.1,6.7-6.2,6.7c-0.8,0-1.9-0.1-3.2-0.4v-3.8c0.6,0.2,1.2,0.3,1.6,0.3c0.9,0,1.5-0.2,1.8-0.7
		c0.3-0.5,0.5-1.3,0.5-2.3v-17H11V6.2h11.5v3.6H19.5z"/>
	<path d="M38.5,19.9c0,1.5-0.3,2.8-1,4c-0.7,1.2-1.6,2.1-2.8,2.8c-1.2,0.7-2.5,1-3.9,1c-1.5,0-2.8-0.3-4-1c-1.2-0.7-2.1-1.6-2.7-2.8
		c-0.7-1.2-1-2.5-1-4c0-1.5,0.3-2.8,1-3.9c0.7-1.2,1.6-2.1,2.8-2.7c1.2-0.7,2.5-1,3.9-1c1.5,0,2.8,0.3,4,1c1.2,0.7,2.1,1.6,2.8,2.7
		C38.2,17.2,38.5,18.5,38.5,19.9z M30.8,24c0.9,0,1.6-0.4,2.1-1.1c0.5-0.7,0.8-1.7,0.8-3.1c0-1.2-0.3-2.2-0.8-2.9
		c-0.5-0.7-1.2-1.1-2.2-1.1c-0.9,0-1.7,0.3-2.1,1c-0.5,0.7-0.7,1.7-0.7,3.1c0,1.2,0.3,2.1,0.8,2.9C29.2,23.6,29.9,24,30.8,24z"/>
	<path d="M51.1,12.3c1.5,0,2.6,0.5,3.4,1.4c0.7,0.9,1.1,2.2,1.1,3.9v6.3h2.2v3.4h-6.9v-9.5c0-0.6-0.1-1-0.3-1.3
		c-0.2-0.3-0.6-0.4-1.1-0.4c-0.7,0-1.5,0.3-2.5,0.9v6.9H49v3.4h-9.1v-3.4h2.4V9.6h-2.4V6.2h7v7.6C48.4,12.8,49.8,12.3,51.1,12.3z"/>
	<path d="M75.3,17.9v6h2.2v3.4h-6.9v-9c0-0.7-0.1-1.2-0.3-1.5c-0.2-0.3-0.6-0.5-1.1-0.5c-0.9,0-1.8,0.3-2.7,1v6.6h2.3v3.4h-9.2v-3.4
		h2.2V16h-2.2v-3.4h6.9V14c1.4-1.1,2.8-1.6,4.3-1.6c1.5,0,2.6,0.5,3.3,1.4C75,14.7,75.3,16.1,75.3,17.9z"/>
	<path class="st0" d="M109.5,17c0,2.2-0.5,4.1-1.4,5.6c-0.9,1.5-2.2,2.7-3.9,3.5c-1.6,0.8-3.5,1.2-5.7,1.2H86.9v-3.6h3.2V9.8h-3.2
		V6.2h11.3c2.2,0,4.1,0.4,5.8,1.1c1.7,0.7,3,1.9,4,3.5C109,12.5,109.5,14.5,109.5,17z M103.8,16.8c0-2.3-0.5-4.1-1.6-5.2
		c-1.1-1.2-2.7-1.8-4.7-1.8h-1.9v13.9h1.3c1.9,0,3.3-0.3,4.4-1c1-0.6,1.7-1.4,2-2.4C103.6,19.3,103.8,18.2,103.8,16.8z"/>
	<path class="st0" d="M127.8,19.9c0,1.5-0.3,2.8-1,4c-0.7,1.2-1.6,2.1-2.8,2.8c-1.2,0.7-2.5,1-3.9,1c-1.5,0-2.8-0.3-4-1
		c-1.2-0.7-2.1-1.6-2.7-2.8c-0.7-1.2-1-2.5-1-4c0-1.5,0.3-2.8,1-3.9c0.7-1.2,1.6-2.1,2.8-2.7c1.2-0.7,2.5-1,3.9-1c1.5,0,2.8,0.3,4,1
		c1.2,0.7,2.1,1.6,2.8,2.7C127.5,17.2,127.8,18.5,127.8,19.9z M120.1,24c0.9,0,1.6-0.4,2.1-1.1c0.5-0.7,0.8-1.7,0.8-3.1
		c0-1.2-0.3-2.2-0.8-2.9s-1.2-1.1-2.2-1.1c-0.9,0-1.7,0.3-2.1,1c-0.5,0.7-0.7,1.7-0.7,3.1c0,1.2,0.3,2.1,0.8,2.9S119.2,24,120.1,24z
		"/>
	<path class="st0" d="M145.8,20.9h-10.9c0.1,1.1,0.5,2,1.2,2.7c0.7,0.7,1.5,1,2.6,1c1.2,0,2.3-0.6,3.4-1.7l3.6,1.2
		c-0.8,1.2-1.8,2.1-3,2.7c-1.2,0.6-2.6,0.9-4.2,0.9c-1.6,0-3-0.3-4.3-0.9c-1.2-0.6-2.2-1.5-2.9-2.6c-0.7-1.1-1-2.4-1-3.9
		c0-1.5,0.4-2.8,1.1-4c0.7-1.2,1.7-2.2,2.9-2.8c1.2-0.7,2.5-1,4-1c1.5,0,2.9,0.4,4,1.1c1.1,0.7,2,1.7,2.6,3
		C145.5,17.7,145.8,19.2,145.8,20.9z M138,15.4c-0.8,0-1.5,0.2-2,0.7c-0.5,0.5-0.8,1.2-1,2.2h6.1c-0.1-0.9-0.5-1.6-1.1-2.1
		C139.5,15.7,138.8,15.4,138,15.4z"/>
</g>
</svg>
